<svg width="48" height="50" viewBox="0 0 48 50" fill="none" xmlns="http://www.w3.org/2000/svg">
<path fill-rule="evenodd" clip-rule="evenodd" d="M37.9362 36.1184C37.9442 36.0381 37.9603 35.9263 37.9763 35.7505C37.9924 35.6625 38.0004 35.5825 38.0084 35.5025L38.3525 35.5347H38.4405C39.3284 35.5745 40.3606 35.5025 41.3526 35.3348C42.3365 35.1668 43.2884 34.9028 44.0243 34.5668C45.5364 33.8629 46.8082 32.8629 47.3922 32.071C47.7443 31.5753 47.9602 31.0552 47.9923 30.5271C48.0643 29.495 47.6322 28.7031 46.6325 28.2232C46.0565 27.9431 45.2643 27.8711 44.2486 28.0793C42.9446 28.3514 42.1206 28.5271 41.6006 28.6549C43.9286 24.7913 45.6405 20.6396 46.6563 16.9598C48.0643 11.8719 48.08 7.44842 46.5602 5.50458C44.2563 2.56875 41.4085 1.09681 38.6246 0.432806C34.5609 -0.5351 30.5132 0.352816 28.7852 0.848814C28.292 0.758864 27.7957 0.686856 27.2972 0.632934C26.5773 0.560974 25.8651 0.512795 25.1452 0.504765C23.7292 0.480676 22.4497 0.665054 21.2977 1.00879C20.468 1.2516 19.6723 1.5983 18.9295 2.04063C14.6981 0.600506 -0.829158 -3.52714 0.0346681 13.7361C0.138438 15.8001 1.75429 24.1755 4.20216 29.983C5.05024 31.991 6.01011 33.7347 7.08241 34.9185C8.56206 36.5665 10.2662 37.2944 12.2017 36.5983C12.7218 36.4142 13.2339 36.1264 13.7296 35.7184C13.8099 35.8145 13.9056 35.9182 14.0017 36.0063C14.5857 36.5585 15.5295 36.9905 16.2732 37.1743C17.1611 37.3985 18.6414 37.6623 20.2893 37.3825C20.9346 37.2762 21.5636 37.088 22.1612 36.8225C22.1371 37.0863 22.1214 37.3744 22.1291 37.6783C22.1455 38.1101 22.1532 38.5425 22.1689 38.846C22.2094 39.8943 22.265 40.9341 22.3771 41.9419C22.4972 42.9978 22.6733 43.9339 22.9454 44.6776C22.9852 44.7816 23.017 44.8774 23.0569 44.9895C23.6891 46.9414 24.825 50.4134 30.2167 49.2614C32.3125 48.8136 34.1767 48.2456 35.6724 46.1016C36.9763 44.2538 37.8083 41.2859 37.9362 36.1184Z" fill="#336791"/>
<path fill-rule="evenodd" clip-rule="evenodd" d="M35.7762 32.4624C35.6403 29.8388 36.9362 29.3669 37.8402 29.1105C37.7441 28.9746 37.6159 28.8147 37.4723 28.6306C37.0084 28.0626 36.4241 27.3264 35.9525 26.1827C35.8806 26.0067 35.6644 25.6228 35.3846 25.1188C34.1927 22.9828 31.8409 18.7672 32.3048 15.8792C32.6328 13.8235 34.2008 12.4634 38.1126 12.8714C38.1045 12.8316 38.0885 12.7914 38.0727 12.7513C37.8886 12.2234 37.5928 11.5273 37.1607 10.7515C35.4482 7.63995 31.7285 3.29642 25.1048 3.19234C17.1136 3.05645 15.6574 11.0079 15.3936 14.3517C15.7819 14.1118 16.1886 13.9032 16.6099 13.7278C17.2813 13.456 18.0413 13.2238 18.8014 13.1036C19.5933 12.9838 20.3931 12.9999 21.1134 13.2235C22.2412 13.5755 23.1372 14.4156 23.4893 16.0154C24.7209 21.7351 23.6171 24.199 22.7527 26.1268C22.1205 27.5188 22.383 26.9249 21.9861 28.0413C21.8413 28.4481 21.7141 28.831 21.6254 29.1825C21.72 29.1592 21.8162 29.1432 21.9133 29.1346C22.4333 29.0867 23.0411 29.2946 23.4652 29.5985C23.921 29.9265 24.2889 30.4385 24.497 31.0065C24.6811 31.5346 24.657 32.0386 24.649 32.5905C24.5931 35.1582 24.6091 37.6941 24.7049 39.7581C24.8009 41.8141 24.9689 43.3499 25.1928 43.9259C25.4328 44.5257 25.817 45.4136 26.5449 46.0297C27.2488 46.6295 28.3368 46.9896 30.0645 46.6215C31.5766 46.2935 32.6004 45.8299 33.2724 45.1257C33.9525 44.4296 34.3283 43.4376 34.5683 42.0617C34.7363 41.0537 34.9763 39.2939 35.2005 37.5502C35.4723 35.4223 35.7122 33.2388 35.7762 32.4624ZM17.0012 33.7187C19.6328 33.1746 19.8971 32.8469 20.7452 31.7669C21.049 31.3804 21.3748 31.0119 21.7212 30.6631C21.8035 30.5778 21.9148 30.5264 22.0331 30.5188C22.2249 30.5028 22.497 30.6069 22.6653 30.727C22.8892 30.887 23.081 31.1591 23.1931 31.463C23.2969 31.7752 23.3373 32.1591 23.1369 32.4389C22.1529 33.8071 20.9447 34.3827 19.8169 34.5748C18.6732 34.7747 17.5935 34.5748 16.9449 34.4149C16.6253 34.3346 16.2572 34.1826 16.0172 34.0146C16.209 33.9186 16.5296 33.8145 17.0012 33.7187ZM16.2411 28.7109C16.027 28.5284 15.8239 28.3334 15.633 28.1269C14.6336 27.0308 13.9615 25.591 13.8096 23.9832C13.751 23.3944 13.7644 22.8006 13.8494 22.215C14.1855 19.8073 14.0576 17.6393 13.9856 16.5114C13.9693 16.2155 13.9532 15.9913 13.9615 15.8156C13.9532 15.7597 13.7698 8.52014 17.8891 4.47217C14.1697 3.24824 2.14593 0.312402 2.80222 13.5277C2.89827 15.4555 4.4261 23.3349 6.74611 28.8307C7.47343 30.5587 8.28198 32.0386 9.13777 32.9905C9.84965 33.7824 10.5776 34.1665 11.2814 33.9105C11.6656 33.7743 12.0813 33.4544 12.5217 32.9262C13.7175 31.4829 14.9579 30.0771 16.2411 28.7109ZM30.9366 3.04039C34.7045 4.70442 37.0724 7.71994 38.3683 10.0881C38.7667 10.794 39.1039 11.5326 39.3763 12.296C39.6163 12.9678 39.7043 13.4959 39.6642 13.7278C39.6642 13.7519 39.6564 13.776 39.6564 13.7998C39.6886 14.7837 39.5684 15.5917 39.4322 16.4397C39.3362 17.0957 39.2324 17.7758 39.2003 18.5757C39.1762 19.3357 39.2722 20.1356 39.3763 20.9676C39.6324 23.0875 39.9041 25.3433 38.4804 27.679C38.5045 27.7112 38.5286 27.7433 38.5523 27.7674C38.6082 27.839 38.6644 27.9113 38.7203 27.9752C41.1762 24.1113 42.9681 19.8635 43.9919 16.1439C45.1757 11.8643 45.3598 8.37622 44.3839 7.12048C42.696 4.96848 40.6324 3.79272 38.5761 3.19265C35.6563 2.35229 32.7446 2.67225 30.9366 3.04039ZM15.3455 15.8075C15.3455 16.0154 15.3618 16.2235 15.3696 16.4314C15.4412 17.5914 15.5777 19.8394 15.2176 22.4071C15.1459 22.9031 15.1373 23.3911 15.1855 23.855C15.2981 25.098 15.8151 26.2698 16.6574 27.1908C17.4493 28.0626 18.4972 28.6544 19.6495 28.8147C19.8576 28.8468 20.0735 28.8545 20.2817 28.8625C20.386 28.4391 20.5321 28.0006 20.6992 27.5416C20.929 26.9094 20.9923 26.6528 21.4895 25.5589C22.2737 23.8148 23.2731 21.5912 22.1294 16.3032C21.9136 15.2794 21.3694 14.7513 20.7054 14.5435C20.2017 14.3832 19.6099 14.3832 19.0018 14.4715C18.3619 14.5675 17.714 14.7754 17.1299 15.0073C16.121 15.4236 15.3532 15.7754 15.3455 15.8075ZM19.449 15.2316C19.9592 15.1222 20.6535 15.2161 21.1134 15.4635C21.3771 15.6154 21.521 15.8156 21.4969 16.0314C21.4735 16.1995 21.3052 16.4394 21.0494 16.6155C20.8095 16.7754 20.4812 16.8956 20.1294 16.8474H20.1211C19.7773 16.7995 19.4731 16.5994 19.2572 16.3755C19.0485 16.1516 18.9181 15.9101 18.9296 15.7022C18.941 15.4944 19.0929 15.3205 19.449 15.2316ZM38.2719 14.2717C35.1041 13.8794 33.8802 14.7436 33.6643 16.0957C33.2801 18.5114 35.4723 22.4473 36.5918 24.4551C36.8957 24.9912 37.1199 25.4072 37.224 25.6549C37.3438 25.927 37.464 26.183 37.5918 26.4069C38.4236 24.6472 38.2077 22.8392 37.9998 21.1273C37.8957 20.2394 37.792 19.3753 37.8158 18.5352C37.8479 17.6634 37.96 16.9354 38.0638 16.2393C38.1681 15.5917 38.2642 14.9675 38.2719 14.2717ZM38.6641 30.3107C38.5601 30.3428 38.4399 30.3746 38.3201 30.4144C37.8402 30.5506 37.0801 30.7585 37.1601 32.4065C37.2243 32.4704 37.4322 32.5343 37.7441 32.5905C38.2321 32.6946 38.88 32.7107 39.5681 32.6782C40.768 32.6066 42.0478 32.3503 42.8641 31.9747C43.7041 31.5825 44.408 31.1106 44.8397 30.6946C43.0373 31.0303 40.2991 31.5451 38.6641 30.3107ZM36.9844 15.2316C37.0084 15.3755 36.8883 15.6235 36.6885 15.8316C36.4464 16.0833 36.1653 16.2368 35.8676 16.2702C35.636 16.2961 35.3941 16.2495 35.1526 16.1195C34.8682 15.9616 34.6597 15.747 34.656 15.5311C34.6535 15.3835 34.7465 15.2353 34.9769 15.1034C35.169 14.9993 35.4408 14.9113 35.745 14.8634C36.0489 14.8233 36.337 14.8313 36.5529 14.8875C36.8003 14.9437 36.96 15.0635 36.9844 15.2316ZM39.4958 29.3267C39.8158 29.6309 40.8958 30.1028 44.5198 29.3508C45.2236 29.2069 45.7196 29.239 46.0396 29.391C46.4556 29.5908 46.6396 29.9188 46.6075 30.3505C46.5915 30.6146 46.4716 30.8864 46.2715 31.1668C45.8073 31.8067 44.7437 32.6227 43.4397 33.2308C42.4718 33.6786 40.9919 33.9828 39.6398 34.0628C38.8479 34.1026 38.0878 34.0705 37.472 33.9507C37.3201 33.9186 37.1681 33.8787 37.0319 33.8389C36.9201 34.8546 36.7518 36.2784 36.568 37.7185C36.3438 39.5265 36.0958 41.3184 35.9281 42.2943C35.64 43.95 35.1603 45.1662 34.2721 46.0859C33.3839 47.0057 32.1442 47.5897 30.3523 47.9739C28.1126 48.4538 26.6404 47.926 25.6487 47.0937C24.6727 46.2697 24.2089 45.1736 23.9127 44.4377C23.6168 43.71 23.4244 42.0062 23.3206 39.822C23.249 38.2303 23.2169 36.3504 23.2326 34.3982C22.2246 35.3102 21.1131 35.758 20.0568 35.9424C18.6575 36.182 17.3773 35.9501 16.6095 35.758C16.0493 35.6141 15.3532 35.3018 14.9452 34.918C14.7052 34.6937 14.5453 34.4303 14.4971 34.1264C14.4495 33.774 14.5533 33.4303 14.8813 33.1264C15.1932 32.8302 15.7692 32.5664 16.7288 32.3663C18.857 31.9265 19.0488 31.6866 19.6566 30.9104C19.813 30.7132 19.9757 30.5211 20.1445 30.3345C20.1368 30.3023 20.1368 30.2705 20.1368 30.2384C19.9094 30.2322 19.6824 30.2134 19.4571 30.1822C18.7344 30.0787 18.0356 29.8485 17.3928 29.5024C16.8168 30.1105 15.2732 31.7823 13.5848 33.8142C12.9853 34.5421 12.3608 34.9902 11.7373 35.2141C10.4176 35.686 9.20911 35.1341 8.10532 33.9182C7.14575 32.8463 6.26555 31.2381 5.47369 29.3666C3.08975 23.7188 1.52208 15.5833 1.41769 13.5913C0.602043 -2.79175 16.5932 2.4959 19.1368 3.43972C20.6489 2.40788 22.601 1.76797 25.1286 1.80781C26.3525 1.82356 27.4965 1.97551 28.5444 2.23184C29.0484 2.09596 29.7603 1.89583 29.8004 1.87977C29.8965 1.85568 30.0083 1.8319 30.1525 1.79978C32.0324 1.35968 35.4723 0.863992 38.96 1.87174C41.2636 2.53574 43.5756 3.85573 45.4716 6.27148C46.7196 7.87127 46.6155 11.8232 45.3196 16.5108C44.2078 20.5433 42.2238 25.183 39.4958 29.3267Z" fill="white"/>
</svg>
