<svg width="48" height="55" viewBox="0 0 48 55" fill="none" xmlns="http://www.w3.org/2000/svg">
<path d="M48 27.4922C48 24.2961 44.0179 21.2673 37.9126 19.389C39.3216 13.1345 38.6954 8.15853 35.9363 6.5654C35.3005 6.19172 34.5568 6.01472 33.7446 6.01472V8.20768C34.1949 8.20768 34.5568 8.2962 34.8602 8.46338C36.1907 9.23042 36.768 12.1511 36.3181 15.9077C36.2102 16.8321 36.0342 17.8057 35.8189 18.7989C33.9014 18.3269 31.8076 17.963 29.6062 17.727C28.2854 15.9077 26.9156 14.2556 25.5361 12.81C28.7256 9.83031 31.7195 8.19787 33.7546 8.19787V6.00488C31.064 6.00488 27.5418 7.93233 23.9804 11.2759C20.4191 7.95201 16.8969 6.04422 14.2063 6.04422V8.23721C16.2316 8.23721 19.2352 9.8598 22.4248 12.8198C21.055 14.2654 19.6853 15.9077 18.384 17.727C16.1729 17.963 14.0791 18.3269 12.1614 18.8088C11.9364 17.8253 11.7701 16.8714 11.6527 15.9569C11.1928 12.2003 11.7603 9.2796 13.0811 8.50272C13.3747 8.32569 13.7562 8.24702 14.2063 8.24702V6.05406C13.3844 6.05406 12.6408 6.23106 11.9951 6.60474C9.24582 8.19787 8.62944 13.164 10.0481 19.3988C3.9625 21.2869 0 24.306 0 27.4922C0 30.6882 3.98205 33.7169 10.0872 35.5953C8.67837 41.8499 9.30451 46.8259 12.0636 48.419C12.6996 48.7927 13.4431 48.9696 14.265 48.9696C16.9556 48.9696 20.4778 47.0421 24.0391 43.6986C27.6005 47.0224 31.1227 48.9304 33.8134 48.9304C34.6352 48.9304 35.3789 48.7532 36.0243 48.3797C38.7738 46.7864 39.3901 41.8203 37.9715 35.5857C44.0374 33.7073 48 30.6784 48 27.4922ZM35.2614 20.9329C34.8992 22.2015 34.4493 23.5094 33.9405 24.8173C33.5392 24.0306 33.1187 23.2439 32.6589 22.4572C32.2086 21.6704 31.7293 20.9034 31.2499 20.156C32.6394 20.3625 33.9795 20.6182 35.2614 20.9329ZM30.7803 31.4061C30.0171 32.7337 29.2344 33.9926 28.4223 35.1627C26.9645 35.2904 25.4872 35.3592 24 35.3592C22.5226 35.3592 21.0452 35.2904 19.5972 35.1727C18.7852 34.0022 17.9927 32.7533 17.2295 31.4356C16.4859 30.1473 15.8108 28.8394 15.1945 27.5217C15.8011 26.2039 16.486 24.8862 17.2197 23.5979C17.9829 22.2703 18.7656 21.0116 19.5777 19.8413C21.0355 19.7135 22.5128 19.6446 24 19.6446C25.4774 19.6446 26.9548 19.7135 28.4028 19.8315C29.2148 21.0017 30.0073 22.2507 30.7705 23.5684C31.5141 24.8567 32.1891 26.1646 32.8054 27.4823C32.1891 28.8001 31.514 30.1178 30.7803 31.4061ZM33.9405 30.1277C34.4688 31.4454 34.9187 32.7633 35.2906 34.0415C34.009 34.3564 32.6589 34.6217 31.2597 34.8282C31.7391 34.0711 32.2186 33.2943 32.6685 32.4976C33.1187 31.711 33.5392 30.9144 33.9405 30.1277ZM24.0196 40.6206C23.1097 39.6766 22.1997 38.6242 21.2996 37.4737C22.1802 37.5129 23.0803 37.5425 23.9902 37.5425C24.9099 37.5425 25.8198 37.5229 26.7101 37.4737C25.8296 38.6242 24.9197 39.6766 24.0196 40.6206ZM16.7403 34.8282C15.351 34.6217 14.0106 34.366 12.7289 34.0514C13.0909 32.7829 13.541 31.4749 14.0497 30.167C14.4509 30.9538 14.8716 31.7405 15.3314 32.5272C15.7913 33.3139 16.2609 34.081 16.7403 34.8282ZM23.9707 14.3638C24.8805 15.3078 25.7905 16.3601 26.6906 17.5107C25.81 17.4713 24.9099 17.4418 24 17.4418C23.0803 17.4418 22.1704 17.4615 21.2801 17.5107C22.1606 16.3601 23.0705 15.3078 23.9707 14.3638ZM16.7305 20.156C16.2511 20.9132 15.7717 21.6901 15.3216 22.4867C14.8716 23.2734 14.4509 24.0601 14.0497 24.8468C13.5214 23.5291 13.0713 22.2113 12.6996 20.9329C13.9812 20.628 15.3314 20.3625 16.7305 20.156ZM7.87606 32.468C4.41254 30.9832 2.17204 29.0361 2.17204 27.4922C2.17204 25.9482 4.41254 23.9913 7.87606 22.5162C8.7175 22.1523 9.63718 21.8278 10.5862 21.5229C11.1439 23.4504 11.8777 25.4565 12.7876 27.5118C11.8875 29.5573 11.1635 31.5536 10.6156 33.4712C9.64698 33.1663 8.72726 32.8321 7.87606 32.468ZM13.1398 46.521C11.8092 45.7539 11.232 42.8331 11.682 39.0767C11.7896 38.1523 11.9658 37.1787 12.181 36.1855C14.0987 36.6573 16.1924 37.0214 18.3938 37.2572C19.7146 39.0767 21.0844 40.7286 22.4639 42.1744C19.2744 45.154 16.2805 46.7864 14.2454 46.7864C13.8052 46.7767 13.4333 46.6883 13.1398 46.521ZM36.3472 39.0275C36.807 42.7839 36.2397 45.7047 34.9187 46.4818C34.6253 46.6587 34.2438 46.7375 33.7936 46.7375C31.7684 46.7375 28.7648 45.1148 25.5752 42.1548C26.945 40.709 28.3147 39.0667 29.616 37.2476C31.8272 37.0115 33.921 36.6477 35.8387 36.1659C36.0637 37.1591 36.2397 38.1128 36.3472 39.0275ZM40.1142 32.468C39.2726 32.8321 38.353 33.1566 37.4038 33.4616C36.8464 31.534 36.1126 29.5278 35.2026 27.4725C36.1027 25.427 36.8269 23.4307 37.3747 21.5131C38.3434 21.818 39.263 22.1523 40.1238 22.5162C43.5875 24.0011 45.8278 25.9482 45.8278 27.4922C45.8182 29.0361 43.5776 30.9931 40.1142 32.468Z" fill="#61DAFB"/>
<path d="M23.9902 31.9863C26.4596 31.9863 28.4615 29.9742 28.4615 27.4922C28.4615 25.0101 26.4596 22.998 23.9902 22.998C21.5208 22.998 19.519 25.0101 19.519 27.4922C19.519 29.9742 21.5208 31.9863 23.9902 31.9863Z" fill="#61DAFB"/>
</svg>
