<svg width="48" height="48" viewBox="0 0 48 48" fill="none" xmlns="http://www.w3.org/2000/svg">
<g clip-path="url(#clip0_105_387)">
<mask id="mask0_105_387" style="mask-type:luminance" maskUnits="userSpaceOnUse" x="0" y="0" width="48" height="48">
<path d="M48 0H0V48H48V0Z" fill="white"/>
</mask>
<g mask="url(#mask0_105_387)">
<path d="M0 0H48V48H0V0Z" fill="#F0DB4F"/>
<path d="M44.0714 36.5521C43.72 34.362 42.2922 32.5233 38.0624 30.8077C36.5933 30.1324 34.9552 29.6488 34.4669 28.5354C34.2934 27.8875 34.2707 27.5225 34.3802 27.1301C34.695 25.8571 36.2144 25.4602 37.4189 25.8252C38.1946 26.0853 38.9293 26.683 39.3718 27.6366C41.4432 26.2952 41.4387 26.3043 42.8851 25.3826C42.3558 24.5614 42.073 24.1826 41.7261 23.8313C40.4806 22.4397 38.7834 21.7233 36.0685 21.7781C35.5984 21.8374 35.1238 21.9012 34.6541 21.9606C33.2989 22.3028 32.0077 23.0146 31.2502 23.9682C28.978 26.5461 29.6259 31.0586 32.3907 32.9156C35.1149 34.9598 39.1165 35.4254 39.6275 37.337C40.1248 39.6778 37.9072 40.435 35.7034 40.1658C34.079 39.8282 33.1757 39.0023 32.1994 37.5012C30.4016 38.5415 30.4016 38.5415 28.5537 39.6046C28.9917 40.563 29.4525 40.9962 30.1871 41.8266C33.664 45.3537 42.3651 45.1802 43.9254 39.842C43.9894 39.6593 44.4093 38.4366 44.0714 36.5521ZM26.0943 22.0609H21.6045C21.6045 25.9393 21.5864 29.7902 21.5864 33.6686C21.5864 36.137 21.7141 38.4001 21.3126 39.0935C20.6556 40.4577 18.9537 40.289 18.178 40.0244C17.3886 39.6366 16.9871 39.0846 16.5217 38.3044C16.394 38.0807 16.2981 37.9073 16.2661 37.8935C15.0479 38.6372 13.8342 39.3857 12.616 40.1294C13.2228 41.3751 14.1171 42.4564 15.2624 43.1591C16.9734 44.1857 19.273 44.5006 21.6776 43.9482C23.2426 43.4919 24.5932 42.5476 25.3004 41.1105C26.3224 39.226 26.1034 36.9447 26.0943 34.4215C26.1171 30.3058 26.0943 26.1902 26.0943 22.0609Z" fill="#323330"/>
</g>
</g>
<defs>
<clipPath id="clip0_105_387">
<rect width="48" height="48" fill="white"/>
</clipPath>
</defs>
</svg>
