<svg width="48" height="48" viewBox="0 0 48 48" fill="none" xmlns="http://www.w3.org/2000/svg">
<g clip-path="url(#clip0_114_322)">
<path d="M47.991 23.4712C47.8605 15.4462 43.386 7.63274 36.4635 3.51824C31.0095 0.12149 24.12 -0.79276 17.9145 0.77474C8.57472 3.12599 1.12872 11.5845 0.182222 21.225C-0.993778 30.33 3.61122 39.7995 11.481 44.469C19.188 49.302 29.6707 49.1062 37.206 44.019C43.9987 39.6105 48.2115 31.569 47.9835 23.478L47.991 23.4712ZM25.3275 44.4375C14.4202 45.5152 3.87222 36.2737 3.57747 25.3335C2.75247 16.4512 8.60622 7.66649 16.9665 4.72724C28.6905 0.0247403 43.092 8.71124 44.3002 21.285C46.1947 32.583 36.7897 44.085 25.3275 44.4375ZM18.15 22.785L33.9225 9.88499L25.3995 22.8172C22.983 22.8172 20.5665 22.818 18.15 22.785ZM22.5847 25.17L29.8342 25.203L14.0617 38.1352L22.5847 25.17Z" fill="white"/>
</g>
<defs>
<clipPath id="clip0_114_322">
<rect width="48" height="48" fill="white"/>
</clipPath>
</defs>
</svg>
