<svg width="48" height="50" viewBox="0 0 48 50" fill="none" xmlns="http://www.w3.org/2000/svg">
<g clip-path="url(#clip0_114_318)">
<path d="M28.0548 48.7982C26.7955 50.3915 24.2423 49.5185 24.212 47.484L23.7683 17.7268H43.6816C47.2884 17.7268 49.3 21.9127 47.0572 24.751L28.0548 48.7982Z" fill="url(#paint0_linear_114_318)"/>
<path d="M28.0548 48.7982C26.7955 50.3915 24.2423 49.5185 24.212 47.484L23.7683 17.7268H43.6816C47.2884 17.7268 49.3 21.9127 47.0572 24.751L28.0548 48.7982Z" fill="url(#paint1_linear_114_318)" fill-opacity="0.2"/>
<path d="M19.9561 0.916448C21.2153 -0.677092 23.7686 0.196053 23.7989 2.23059L23.9934 31.9878H4.32931C0.722374 31.9878 -1.28928 27.8019 0.95362 24.9636L19.9561 0.916448Z" fill="#3ECF8E"/>
</g>
<defs>
<linearGradient id="paint0_linear_114_318" x1="23.7683" y1="24.3247" x2="41.4918" y2="31.7225" gradientUnits="userSpaceOnUse">
<stop stop-color="#249361"/>
<stop offset="1" stop-color="#3ECF8E"/>
</linearGradient>
<linearGradient id="paint1_linear_114_318" x1="15.9219" y1="13.53" x2="24.0535" y2="28.7645" gradientUnits="userSpaceOnUse">
<stop/>
<stop offset="1" stop-opacity="0"/>
</linearGradient>
<clipPath id="clip0_114_318">
<rect width="48" height="50" fill="white"/>
</clipPath>
</defs>
</svg>
