<svg width="48" height="46" viewBox="0 0 48 46" fill="none" xmlns="http://www.w3.org/2000/svg">
<g clip-path="url(#clip0_114_466)">
<mask id="mask0_114_466" style="mask-type:luminance" maskUnits="userSpaceOnUse" x="0" y="0" width="48" height="46">
<path d="M47.4514 0H0V46H47.4514V0Z" fill="white"/>
</mask>
<g mask="url(#mask0_114_466)">
<path d="M39.0485 0H8.40283C3.76208 0 0 3.74052 0 8.35469V37.6453C0 42.2595 3.76208 46 8.40283 46H39.0485C43.6893 46 47.4514 42.2595 47.4514 37.6453V8.35469C47.4514 3.74052 43.6893 0 39.0485 0Z" fill="#330000"/>
<path d="M22.9941 27.6055H15.641L14.1449 32.2264C14.1246 32.3106 14.0752 32.3852 14.0055 32.4372C13.9357 32.4892 13.85 32.5154 13.7629 32.5113H10.0386C9.82619 32.5113 9.75193 32.3952 9.81578 32.1631L16.1821 13.933C16.2458 13.7431 16.3095 13.5268 16.3732 13.2841C16.4564 12.8618 16.4991 12.4327 16.5005 12.0023C16.4962 11.9723 16.4989 11.9416 16.5086 11.9127C16.5183 11.8839 16.5346 11.8577 16.5562 11.8362C16.5778 11.8147 16.6042 11.7985 16.6332 11.7889C16.6622 11.7792 16.693 11.7765 16.7233 11.7808H21.7845C21.9328 11.7808 22.0177 11.8335 22.0392 11.939L29.2651 32.1947C29.3288 32.4059 29.265 32.5114 29.0741 32.5113H24.9359C24.8648 32.5191 24.7933 32.5009 24.7347 32.4601C24.6762 32.4194 24.6345 32.3588 24.6176 32.2897L22.9941 27.6055ZM16.7869 23.6177H21.8164C21.6891 23.1959 21.5405 22.7211 21.3708 22.1935C21.2006 21.6663 21.0203 21.1019 20.8296 20.5002C20.6386 19.8989 20.4475 19.2976 20.2566 18.6962C20.0656 18.0949 19.8906 17.5146 19.7314 16.9554C19.5722 16.3967 19.429 15.885 19.3017 15.4205H19.2699C19.0906 16.2753 18.8675 17.1204 18.6014 17.9524C18.304 18.9019 18.0015 19.8725 17.6941 20.8642C17.3862 21.8562 17.0838 22.7741 16.7869 23.6177Z" fill="#FF9A00"/>
<path d="M33.562 15.1356C33.2373 15.1486 32.9136 15.0933 32.6119 14.9733C32.3102 14.8533 32.0374 14.6714 31.8113 14.4394C31.5858 14.1973 31.4106 13.9133 31.2959 13.6037C31.1812 13.2941 31.1291 12.965 31.1428 12.6353C31.1312 12.3089 31.189 11.9838 31.3124 11.6811C31.4358 11.3784 31.6221 11.105 31.8589 10.8788C32.0936 10.6549 32.3705 10.4794 32.6738 10.3627C32.977 10.2458 33.3006 10.19 33.6256 10.1983C34.3896 10.1983 34.9892 10.4251 35.4242 10.8788C35.6438 11.1145 35.8144 11.391 35.9264 11.6924C36.0383 11.9938 36.0894 12.3143 36.0767 12.6353C36.09 12.9663 36.0363 13.2965 35.9187 13.6064C35.8011 13.9163 35.6221 14.1996 35.3923 14.4394C35.1521 14.6748 34.8655 14.8582 34.5505 14.978C34.2355 15.0978 33.8989 15.1515 33.562 15.1356ZM31.3655 32.1947V17.0662C31.3655 16.8764 31.4501 16.7814 31.6202 16.7814H35.5356C35.7052 16.7814 35.7901 16.8763 35.7903 17.0662V32.1947C35.7903 32.4059 35.7054 32.5114 35.5356 32.5113H31.6521C31.4611 32.5113 31.3656 32.4057 31.3655 32.1947Z" fill="#FF9A00"/>
</g>
</g>
<defs>
<clipPath id="clip0_114_466">
<rect width="48" height="46" fill="white"/>
</clipPath>
</defs>
</svg>
