<svg width="48" height="36" viewBox="0 0 48 36" fill="none" xmlns="http://www.w3.org/2000/svg">
<g clip-path="url(#clip0_105_403)">
<mask id="mask0_105_403" style="mask-type:luminance" maskUnits="userSpaceOnUse" x="0" y="0" width="48" height="36">
<path d="M48 0H0V35.8407H48V0Z" fill="white"/>
</mask>
<g mask="url(#mask0_105_403)">
<path d="M41.3062 20.5897C39.6281 20.5992 38.175 21.0004 36.9561 21.5979C36.5062 20.7112 36.0563 19.9364 35.9814 19.3578C35.8969 18.6858 35.7939 18.275 35.8969 17.4724C36 16.6697 36.4688 15.531 36.4688 15.4376C36.4592 15.3537 36.3654 14.943 35.4 14.9336C34.4345 14.9243 33.6 15.1203 33.5062 15.3723C33.4125 15.6243 33.2249 16.203 33.103 16.8003C32.9344 17.6777 31.1718 20.7857 30.1687 22.4191C29.8406 21.7844 29.5593 21.2244 29.503 20.7763C29.4187 20.1044 29.3155 19.6936 29.4187 18.891C29.5219 18.0883 29.9906 16.9497 29.9906 16.8563C29.9812 16.7723 29.8875 16.3617 28.922 16.3523C27.9562 16.343 27.122 16.539 27.0282 16.791C26.9344 17.043 26.8313 17.6404 26.6251 18.219C26.4281 18.7977 24.0844 23.9872 23.475 25.3405C23.1656 26.0312 22.8938 26.5819 22.6968 26.9552C22.5 27.3286 22.6875 26.9832 22.6687 27.0205C22.5 27.3379 22.4062 27.5152 22.4062 27.5152V27.5246C22.275 27.758 22.1343 27.9819 22.0686 27.9819C22.0218 27.9819 21.928 27.3565 22.0874 26.4979C22.4343 24.6965 23.278 21.8872 23.2687 21.7845C23.2687 21.7379 23.428 21.2431 22.7249 20.9912C22.0405 20.7392 21.7968 21.1592 21.7405 21.1592C21.6843 21.1592 21.6374 21.3085 21.6374 21.3085C21.6374 21.3085 22.3967 18.1445 20.1843 18.1445C18.7967 18.1445 16.8843 19.6472 15.9374 21.0193C15.3374 21.3459 14.0624 22.0365 12.7124 22.774C12.1967 23.054 11.6624 23.3527 11.1561 23.6233L11.0531 23.5111C8.37185 20.6644 3.41249 18.6484 3.61873 14.8216C3.69374 13.4309 4.18123 9.76285 13.1438 5.3201C20.4845 1.68004 26.3626 2.67872 27.3844 4.90011C28.8375 8.0735 24.2437 13.9723 16.6126 14.8216C13.7063 15.1483 12.1781 14.0283 11.7938 13.6083C11.3907 13.1696 11.3344 13.1509 11.1845 13.2349C10.9407 13.3656 11.0907 13.7576 11.1845 13.9909C11.4095 14.579 12.347 15.6243 13.9407 16.147C15.3375 16.6043 18.7501 16.8563 22.8751 15.2696C27.4969 13.4869 31.1063 8.54016 30.047 4.40541C28.9688 0.196008 21.9563 -1.18535 15.3282 1.15736C11.3812 2.55739 7.10622 4.74143 4.03124 7.60683C0.37498 11.0042 -0.206271 13.9723 0.0374792 15.2043C0.890699 19.6004 6.97499 22.4658 9.41249 24.5845C9.2906 24.6497 9.17809 24.7151 9.07499 24.7712C7.85624 25.3684 3.2156 27.7859 2.05311 30.3432C0.740603 33.2366 2.25935 35.3179 3.27185 35.5979C6.40311 36.4661 9.60935 34.9073 11.3437 32.3407C13.0687 29.7739 12.8625 26.4419 12.0656 24.9205L12.0374 24.8645L12.9936 24.3045C13.6125 23.9405 14.2219 23.6045 14.7561 23.315C14.4562 24.127 14.2405 25.0884 14.1281 26.4884C13.9968 28.1312 14.6719 30.2592 15.5625 31.0992C15.9562 31.4631 16.425 31.4725 16.7156 31.4725C17.7469 31.4725 18.2156 30.6231 18.7312 29.6058C19.3687 28.3645 19.9312 26.9271 19.9312 26.9271C19.9312 26.9271 19.2281 30.8192 21.15 30.8192C21.8531 30.8192 22.5562 29.9138 22.875 29.4472V29.4565C22.875 29.4565 22.8937 29.4285 22.9312 29.3632C22.9706 29.3052 23.0081 29.2461 23.0437 29.1859V29.1672C23.325 28.6819 23.9531 27.5712 24.8906 25.7325C26.0999 23.3618 27.2625 20.3937 27.2625 20.3937C27.2625 20.3937 27.375 21.1217 27.7219 22.3164C27.928 23.0259 28.378 23.8005 28.7249 24.5565C28.4436 24.9485 28.2749 25.1726 28.2749 25.1726L28.2843 25.1819C28.0593 25.4806 27.8061 25.798 27.5437 26.1153C26.5875 27.254 25.4437 28.5514 25.2937 28.9248C25.1156 29.3634 25.1531 29.69 25.5 29.9515C25.7531 30.1381 26.2031 30.1754 26.6812 30.1381C27.5437 30.082 28.1437 29.8674 28.4437 29.7367C28.9125 29.5687 29.4469 29.3167 29.9625 28.9433C30.9 28.2527 31.4718 27.2727 31.4156 25.966C31.3875 25.2473 31.1531 24.538 30.8625 23.866C30.9469 23.7446 31.0313 23.6232 31.1156 23.4926C32.5968 21.3365 33.7405 18.9659 33.7405 18.9659C33.7405 18.9659 33.8531 19.6939 34.2 20.8886C34.3779 21.4953 34.7344 22.1581 35.0531 22.8114C33.6656 23.9408 32.7936 25.2474 32.4937 26.1061C31.9406 27.6928 32.3718 28.4115 33.1875 28.5795C33.5529 28.6542 34.0781 28.4862 34.4717 28.3182C34.9593 28.1595 35.5497 27.8888 36.0937 27.4875C37.0313 26.7968 37.9312 25.8354 37.8845 24.5381C37.8563 23.9408 37.6969 23.3528 37.4813 22.7927C38.6624 22.3074 40.1904 22.0274 42.1312 22.2607C46.303 22.7461 47.128 25.3408 46.9689 26.4235C46.8096 27.5063 45.9376 28.1035 45.6467 28.2902C45.3561 28.4675 45.2624 28.5329 45.2905 28.6635C45.328 28.8596 45.4595 28.8502 45.7126 28.8129C46.0595 28.7569 47.9062 27.9263 47.9811 25.929C48.0937 23.3619 45.6467 20.5618 41.3062 20.5897ZM9.13124 31.3886C7.7531 32.8913 5.81249 33.4606 4.98747 32.9754C4.09684 32.4621 4.44363 30.2499 6.14062 28.6539C7.17185 27.6832 8.51249 26.7872 9.39374 26.2365C9.5906 26.1152 9.8906 25.9379 10.2469 25.7232C10.3031 25.6859 10.3406 25.6672 10.3406 25.6672C10.4062 25.6298 10.4812 25.5832 10.5562 25.5365C11.1844 27.8139 10.5844 29.8112 9.13124 31.3886ZM19.2094 24.5658C18.7312 25.7325 17.7187 28.7286 17.1094 28.5606C16.5843 28.4206 16.2656 26.1525 17.0061 23.9125C17.3811 22.783 18.178 21.4391 18.6468 20.9163C19.4062 20.0763 20.2311 19.7963 20.4375 20.1417C20.6812 20.5897 19.5094 23.8378 19.2094 24.5658ZM27.525 28.5232C27.3187 28.626 27.1312 28.7006 27.0469 28.6447C26.9812 28.6073 27.1311 28.4673 27.1311 28.4673C27.1311 28.4673 28.1718 27.3566 28.5843 26.8433C28.8186 26.5447 29.0999 26.1994 29.3999 25.8073V25.9193C29.4 27.2632 28.1062 28.1592 27.525 28.5232ZM33.9373 27.0672C33.7875 26.9552 33.8064 26.6099 34.3123 25.5272C34.5094 25.0978 34.9593 24.3791 35.7373 23.6978C35.831 23.9778 35.8873 24.2484 35.8781 24.5005C35.8688 26.1805 34.6688 26.8059 33.9373 27.0672Z" fill="#CF649A"/>
</g>
</g>
<defs>
<clipPath id="clip0_105_403">
<rect width="48" height="36" fill="white"/>
</clipPath>
</defs>
</svg>
