<svg width="48" height="38" viewBox="0 0 48 38" fill="none" xmlns="http://www.w3.org/2000/svg">
<g clip-path="url(#clip0_114_462)">
<path d="M38.8343 27.9656C37.8575 28.9321 36.6953 29.6959 35.4158 30.2123C34.1363 30.7288 32.7654 30.9873 31.3835 30.9728C28.4955 30.9728 25.8386 29.8879 23.9326 27.9846C23.0085 27.052 22.3154 25.9861 21.8918 24.8251C21.4812 23.7169 21.3185 22.5339 21.4149 21.3576C21.5113 20.1813 21.8645 19.0396 22.4501 18.0112C23.0085 17.0214 23.7786 16.1078 24.722 15.3465C26.5702 13.8619 28.9191 13.0625 31.3835 13.0625C33.8478 13.0625 36.1967 13.8429 38.045 15.3275C38.9884 16.0888 39.7585 16.9834 40.2976 17.9921C41.1889 19.5857 41.5266 21.4245 41.2588 23.2262C40.991 25.0278 40.1325 26.6928 38.8151 27.9656H38.8343Z" fill="white"/>
<path d="M25.2226 21.4372C25.3189 19.8955 26.089 18.5251 27.2441 17.5544C28.3801 16.6027 29.9203 16.0127 31.5953 16.0127C33.251 16.0127 34.7913 16.6027 35.9272 17.5544C37.0824 18.5251 37.8525 19.8955 37.9487 21.4372C38.0258 23.036 37.3904 24.5206 36.2545 25.6245C35.0801 26.7284 33.4436 27.4327 31.5953 27.4327C29.747 27.4327 28.0913 26.7284 26.9168 25.6245C25.7809 24.5206 25.1456 23.036 25.2226 21.4372Z" fill="#005385"/>
<path d="M15.1148 24.5777C15.1148 25.1868 15.3073 26.3668 15.6154 27.2995C16.2314 29.2409 17.2711 31.049 18.7343 32.6478C20.236 34.2657 22.0651 35.579 24.2021 36.5116C26.4626 37.5082 28.9105 38.0217 31.3855 38.0185C33.8606 38.0152 36.3071 37.4952 38.5648 36.4926C40.6364 35.582 42.4924 34.2529 44.0134 32.5907C46.1314 30.2823 47.4352 27.3572 47.7292 24.2541C47.9586 21.3121 47.2227 18.3754 45.6306 15.8795C44.6709 14.3583 43.4453 13.0178 42.0111 11.9206L27.3019 0.767039L27.2633 0.728973C26.3007 0.005707 24.6642 0.005707 23.6053 0.728973C22.5464 1.47127 22.4116 2.70844 23.3743 3.4888L29.4967 8.41843L10.8021 8.43746H10.7829C9.22339 8.43746 7.74092 9.44623 7.45213 10.7024C7.14408 11.9967 8.20299 13.0626 9.80098 13.0816L19.2734 13.0626L2.36936 25.891L2.3116 25.9481C0.713614 27.1472 0.193786 29.1647 1.19494 30.4209C2.21534 31.7152 4.39092 31.7152 6.00816 30.44L15.2303 22.9599C15.2303 22.9599 15.0955 23.9686 15.0955 24.5777H15.1148ZM38.8343 27.9656C37.8575 28.9321 36.6953 29.696 35.4158 30.2124C34.1363 30.7288 32.7654 30.9874 31.3835 30.9729C28.4955 30.9729 25.8386 29.888 23.9326 27.9847C23.0085 27.052 22.3154 25.9862 21.8918 24.8251C21.4812 23.717 21.3185 22.534 21.4149 21.3576C21.5113 20.1813 21.8645 19.0396 22.4501 18.0112C23.0085 17.0215 23.7786 16.1079 24.722 15.3466C26.5702 13.862 28.9191 13.0626 31.3835 13.0626C33.8478 13.0626 36.1967 13.8429 38.045 15.3275C38.9884 16.0889 39.7585 16.9834 40.2976 17.9922C41.1889 19.5858 41.5266 21.4246 41.2588 23.2262C40.991 25.0279 40.1325 26.6929 38.8151 27.9656H38.8343Z" fill="#FF7021"/>
</g>
<defs>
<clipPath id="clip0_114_462">
<rect width="48" height="38" fill="white"/>
</clipPath>
</defs>
</svg>
