<svg width="48" height="46" viewBox="0 0 48 46" fill="none" xmlns="http://www.w3.org/2000/svg">
<g clip-path="url(#clip0_114_454)">
<mask id="mask0_114_454" style="mask-type:luminance" maskUnits="userSpaceOnUse" x="0" y="0" width="48" height="46">
<path d="M47.4514 0H0V46H47.4514V0Z" fill="white"/>
</mask>
<g mask="url(#mask0_114_454)">
<path d="M39.0485 0H8.40283C3.76208 0 0 3.74052 0 8.35469V37.6453C0 42.2595 3.76208 46 8.40283 46H39.0485C43.6893 46 47.4514 42.2595 47.4514 37.6453V8.35469C47.4514 3.74052 43.6893 0 39.0485 0Z" fill="#00005B"/>
<path d="M19.0626 27.5214H11.7094L10.2133 32.1511C10.1929 32.2353 10.1436 32.3099 10.0739 32.3619C10.0041 32.4139 9.91833 32.4401 9.83129 32.4359H6.10695C5.8946 32.4359 5.82028 32.3199 5.88413 32.0878L12.2505 13.933C12.3142 13.7431 12.3779 13.5575 12.4415 13.3146C12.5249 12.8923 12.5675 12.4632 12.5689 12.0328C12.5645 12.0028 12.5673 11.9721 12.577 11.9433C12.5867 11.9144 12.603 11.8882 12.6246 11.8667C12.6462 11.8452 12.6725 11.829 12.7016 11.8194C12.7305 11.8098 12.7614 11.807 12.7917 11.8113H17.853C18.0012 11.8113 18.0861 11.864 18.1076 11.9696L25.3335 32.1194C25.3971 32.3306 25.3334 32.4361 25.1425 32.4359H21.0044C20.9333 32.4438 20.8617 32.4256 20.8032 32.3848C20.7446 32.3441 20.7029 32.2835 20.6861 32.2144L19.0626 27.5214ZM12.8554 23.6178H17.8848C17.7575 23.1959 17.6089 22.7212 17.4391 22.1935C17.269 21.6663 17.0887 21.1019 16.898 20.5002C16.707 19.899 16.5161 19.2976 16.3251 18.6962C16.1341 18.0949 15.959 17.5147 15.7998 16.9555C15.6407 16.3967 15.4974 15.8851 15.3701 15.4205H15.3382C15.1591 16.2753 14.936 17.1204 14.6697 17.9525C14.3723 18.902 14.0699 19.8726 13.7625 20.8642C13.4547 21.8563 13.1523 22.7741 12.8554 23.6178Z" fill="#9999FF"/>
<path d="M37.0478 25.7195H30.777C30.8538 26.3365 31.0598 26.9305 31.3818 27.4633C31.7378 27.991 32.2412 28.4035 32.8301 28.6502C33.6282 28.9935 34.4913 29.1618 35.3608 29.1434C36.0505 29.1302 36.7377 29.0552 37.4139 28.9192C38.0187 28.8381 38.6114 28.6844 39.1792 28.4617C39.285 28.3777 39.3384 28.4301 39.3384 28.62V31.6267C39.3436 31.7086 39.3271 31.7905 39.2905 31.8641C39.2541 31.9216 39.2052 31.9703 39.1473 32.0064C38.5176 32.2838 37.8549 32.48 37.1752 32.5906C36.2518 32.763 35.3134 32.8425 34.3739 32.828C32.8669 32.828 31.6042 32.5959 30.5859 32.1317C29.6233 31.71 28.7731 31.0706 28.1031 30.2643C27.4772 29.5047 27.0117 28.6274 26.7343 27.6849C26.4596 26.7547 26.3202 25.7901 26.3205 24.8206C26.3175 23.762 26.4841 22.7096 26.8139 21.7031C27.1315 20.7213 27.6338 19.8084 28.2941 19.0129C28.9453 18.2267 29.7597 17.5898 30.6815 17.1455C31.615 16.6921 32.7187 16.5294 33.992 16.5294C35.0479 16.5029 36.0967 16.7082 37.0637 17.1307C37.8769 17.4755 38.5927 18.013 39.1487 18.6964C39.6703 19.3655 40.0689 20.1209 40.3265 20.9277C40.5773 21.7052 40.7062 22.5166 40.7085 23.3331C40.7085 23.7974 40.6926 24.2194 40.6607 24.599C40.629 24.9788 40.6024 25.2531 40.5812 25.4219C40.5729 25.4917 40.5392 25.5561 40.4864 25.6027C40.4335 25.6494 40.3653 25.6752 40.2947 25.6752C40.1673 25.6752 39.9498 25.691 39.6421 25.7226C39.3343 25.7543 38.9523 25.7754 38.4962 25.7859C38.0396 25.7968 37.5572 25.7195 37.0478 25.7195ZM30.777 22.8364H34.9469C35.4563 22.8364 35.8329 22.8311 36.0769 22.8206C36.2402 22.8043 36.3979 22.7524 36.5386 22.6684V22.4785C36.5322 22.231 36.4892 21.9857 36.4112 21.7506C36.2395 21.2106 35.8942 20.7417 35.4284 20.4157C34.9626 20.0898 34.4021 19.925 33.8329 19.9465C33.2972 19.9143 32.7636 20.0379 32.2973 20.302C31.831 20.5662 31.452 20.9595 31.2067 21.4341C30.9886 21.8755 30.8435 22.349 30.777 22.8364Z" fill="#9999FF"/>
</g>
</g>
<defs>
<clipPath id="clip0_114_454">
<rect width="48" height="46" fill="white"/>
</clipPath>
</defs>
</svg>
