<svg width="48" height="46" viewBox="0 0 48 46" fill="none" xmlns="http://www.w3.org/2000/svg">
<g clip-path="url(#clip0_114_474)">
<mask id="mask0_114_474" style="mask-type:luminance" maskUnits="userSpaceOnUse" x="0" y="0" width="48" height="46">
<path d="M47.4514 0H0V46H47.4514V0Z" fill="white"/>
</mask>
<g mask="url(#mask0_114_474)">
<path d="M39.0485 0H8.40283C3.76208 0 0 3.74052 0 8.35469V37.6453C0 42.2595 3.76208 46 8.40283 46H39.0485C43.6893 46 47.4514 42.2595 47.4514 37.6453V8.35469C47.4514 3.74052 43.6893 0 39.0485 0Z" fill="#001E36"/>
<path d="M10.6848 32.2579V12.0338C10.6848 11.8865 10.7485 11.8123 10.8758 11.8123C11.215 11.8123 11.5246 11.8073 11.9917 11.7965C12.4583 11.7861 12.9623 11.7755 13.5037 11.7648C14.0449 11.7544 14.6179 11.7439 15.2227 11.7332C15.8275 11.7227 16.4269 11.7175 17.0212 11.7173C18.6337 11.7173 19.9918 11.9177 21.0956 12.3187C22.0913 12.6536 22.9994 13.2049 23.7537 13.9328C24.3931 14.5637 24.8872 15.325 25.202 16.1641C25.4998 16.9808 25.6506 17.8432 25.6477 18.7119C25.6477 20.4002 25.2551 21.7928 24.4699 22.8896C23.6795 23.991 22.5685 24.825 21.2867 25.2792C19.9497 25.7752 18.4641 25.9434 16.8302 25.9434C16.3632 25.9434 16.0342 25.9381 15.8434 25.9275C15.6524 25.9171 15.366 25.9119 14.984 25.9117V32.2263C14.9895 32.265 14.986 32.3044 14.9735 32.3415C14.9611 32.3786 14.9402 32.4123 14.9123 32.4399C14.8845 32.4675 14.8506 32.4884 14.8133 32.5007C14.776 32.5131 14.7364 32.5166 14.6974 32.5111H10.9076C10.759 32.5111 10.6848 32.427 10.6848 32.2579ZM14.984 15.6102V22.2065C15.2595 22.2278 15.5141 22.2383 15.7479 22.2381H16.7983C17.5713 22.2356 18.3391 22.1137 19.0744 21.8768C19.705 21.6906 20.2685 21.3281 20.6978 20.8324C21.1116 20.3473 21.3185 19.6721 21.3185 18.8069C21.3353 18.1946 21.1751 17.5905 20.8569 17.0661C20.5224 16.559 20.0389 16.1668 19.4722 15.9426C18.7323 15.6566 17.942 15.5221 17.1485 15.547C16.6391 15.547 16.1882 15.5522 15.7957 15.5627C15.4028 15.5736 15.1322 15.5895 14.984 15.6102Z" fill="#31A8FF"/>
<path d="M37.9553 21.0071C37.3571 20.7015 36.72 20.478 36.0613 20.3425C35.3356 20.1769 34.5936 20.092 33.849 20.0893C33.4463 20.0784 33.0441 20.1264 32.6553 20.2317C32.4079 20.2865 32.1879 20.4267 32.0346 20.6273C31.9308 20.7878 31.8756 20.9746 31.8755 21.1654C31.8812 21.3505 31.9484 21.5285 32.0664 21.6718C32.2523 21.888 32.4796 22.0655 32.7348 22.194C33.1887 22.437 33.6564 22.6536 34.1355 22.8428C35.2038 23.1984 36.2246 23.6819 37.1754 24.2829C37.8231 24.6893 38.3591 25.2494 38.7352 25.9128C39.0515 26.541 39.2098 27.2361 39.1968 27.9384C39.2158 28.8658 38.9493 29.7769 38.4328 30.5495C37.8799 31.3337 37.112 31.9435 36.2204 32.306C35.2545 32.7279 34.0608 32.9389 32.6394 32.939C31.7364 32.9481 30.8348 32.8632 29.9496 32.6858C29.2521 32.5587 28.5731 32.3461 27.9282 32.0528C27.8586 32.0171 27.8007 31.9624 27.7613 31.8952C27.7218 31.8279 27.7024 31.7508 27.7054 31.673V28.2549C27.7016 28.2214 27.707 28.1876 27.721 28.1569C27.735 28.1262 27.7572 28.0999 27.7851 28.0808C27.8124 28.0654 27.8438 28.0587 27.875 28.0616C27.9063 28.0644 27.936 28.0766 27.9601 28.0967C28.7217 28.5431 29.5486 28.8688 30.4111 29.062C31.1714 29.2514 31.9512 29.3523 32.7348 29.3626C33.4774 29.3626 34.0239 29.2676 34.3742 29.0778C34.5324 29.0058 34.6662 28.8898 34.7595 28.7437C34.8527 28.5977 34.9013 28.4279 34.8995 28.2549C34.8995 27.9809 34.7403 27.7172 34.422 27.4636C34.1037 27.2105 33.4565 26.9045 32.4802 26.5458C31.4807 26.1999 30.533 25.7208 29.6631 25.1216C29.0409 24.6913 28.5285 24.1223 28.167 23.46C27.8539 22.8363 27.6956 22.1472 27.7054 21.4502C27.7036 20.6128 27.935 19.7912 28.3739 19.0765C28.8742 18.2895 29.5928 17.6629 30.443 17.2725C31.3765 16.8086 32.5437 16.5765 33.9446 16.5762C34.7649 16.5696 35.5845 16.6278 36.3956 16.7502C36.9829 16.8244 37.5572 16.9787 38.102 17.2092C38.1452 17.2215 38.1849 17.2436 38.2181 17.2738C38.2512 17.3041 38.2769 17.3415 38.2929 17.3833C38.3145 17.4605 38.3252 17.5404 38.3248 17.6206V20.8172C38.327 20.8544 38.3193 20.8916 38.3026 20.9248C38.2858 20.9582 38.2606 20.9865 38.2293 21.0071C38.1868 21.0282 38.1399 21.0392 38.0923 21.0392C38.0448 21.0392 37.9979 21.0282 37.9553 21.0071Z" fill="#31A8FF"/>
</g>
</g>
<defs>
<clipPath id="clip0_114_474">
<rect width="48" height="46" fill="white"/>
</clipPath>
</defs>
</svg>
