<svg width="48" height="50" viewBox="0 0 48 50" fill="none" xmlns="http://www.w3.org/2000/svg">
<g clip-path="url(#clip0_114_293)">
<path d="M47.9813 11.2879L48 11.4962V22.2159C48 22.4811 47.85 22.7462 47.625 22.8788L38.7 28.0682V38.3333C38.7 38.5985 38.5688 38.8636 38.325 38.9962L19.7438 49.7917L19.6125 49.8674L19.5563 49.8864C19.425 49.9242 19.2938 49.9242 19.1625 49.8864L19.0875 49.8674L18.975 49.8106L0.375012 39.0152C0.131262 38.8636 -0.0187378 38.5985 -0.0187378 38.3333V6.19318L1.22073e-05 5.98485L0.0375122 5.90909L0.0937622 5.79545L0.131262 5.7197L0.206262 5.625L0.281262 5.56818C0.318762 5.56818 0.337512 5.5303 0.375012 5.51136L9.67501 0.113636C9.91876 -0.0378788 10.2188 -0.0378788 10.4438 0.113636L19.7438 5.49242C19.7813 5.49242 19.8 5.5303 19.8188 5.54924L19.9125 5.60606C19.9125 5.64394 19.95 5.68182 19.9688 5.70076L20.025 5.77652L20.0813 5.89015L20.1 5.96591L20.1375 6.1553V26.2311L27.8625 21.7424V11.4962C27.8625 11.4205 27.8625 11.3636 27.9 11.3068L27.9188 11.2311L27.975 11.0985L28.0313 11.0417L28.0875 10.947L28.1813 10.8902L28.2563 10.8144L37.5563 5.41667C37.7813 5.28409 38.0813 5.28409 38.3063 5.41667L47.625 10.7955L47.7188 10.8712L47.7938 10.928L47.8688 11.0227L47.9063 11.0795C47.9438 11.1174 47.9438 11.1742 47.9625 11.2121L48 11.2689L47.9813 11.2879ZM46.4438 21.7614V12.8598L43.2 14.7538L38.7 17.3485V26.25L46.4438 21.7614ZM37.1625 37.8598V28.9583L32.7375 31.5152L20.1375 38.7879V47.7841L37.1625 37.8788V37.8598ZM1.53751 7.55682V37.8788L18.5813 47.7841V38.7879L9.67501 33.6932L9.60001 33.6174C9.56251 33.6174 9.54376 33.5985 9.52501 33.5606L9.45001 33.4848L9.39376 33.4091L9.35626 33.3144L9.31876 33.2197V33.1061L9.28126 33.0114V12.0455L4.80001 9.43182L1.55626 7.53788L1.53751 7.55682ZM10.0688 1.68561L2.32501 6.21212L10.0688 10.7008L17.7938 6.21212L10.0688 1.68561ZM14.0625 29.7917L18.5625 27.178V7.53788L15.3188 9.43182L10.8188 12.0455V31.6667L14.0625 29.7727V29.7917ZM37.9313 6.98864L30.1875 11.4962L37.9313 16.0038L45.675 11.4962L37.9313 6.98864ZM37.1625 17.3485L32.6625 14.7348L29.4188 12.8409V21.7424L33.9188 24.375L37.1625 26.2689V17.3674V17.3485ZM19.35 37.4242L30.7125 30.8902L36.375 27.6136L28.65 23.1061L19.7438 28.2955L11.625 33.0114L19.35 37.4242Z" fill="#FF2D20"/>
</g>
<defs>
<clipPath id="clip0_114_293">
<rect width="48" height="50" fill="white"/>
</clipPath>
</defs>
</svg>
