<svg width="48" height="47" viewBox="0 0 48 47" fill="none" xmlns="http://www.w3.org/2000/svg">
<g clip-path="url(#clip0_105_415)">
<mask id="mask0_105_415" style="mask-type:luminance" maskUnits="userSpaceOnUse" x="0" y="0" width="48" height="47">
<path d="M48 0H0V46.9742H48V0Z" fill="white"/>
</mask>
<g mask="url(#mask0_105_415)">
<path d="M23.9072 0C10.7053 0 0 10.7676 0 24.0505C0 34.6767 6.85011 43.692 16.3492 46.8722C17.544 47.0946 17.9828 46.3504 17.9828 45.7149C17.9828 45.1416 17.9604 43.2468 17.9503 41.2373C11.2991 42.6921 9.89568 38.3996 9.89568 38.3996C8.80819 35.6196 7.24125 34.8808 7.24125 34.8808C5.07226 33.388 7.40474 33.4186 7.40474 33.4186C9.8055 33.5883 11.0696 35.8971 11.0696 35.8971C13.2019 39.5737 16.6624 38.5107 18.0266 37.8965C18.2411 36.3416 18.8608 35.2809 19.5444 34.6802C14.2344 34.0721 8.65219 32.0098 8.65219 22.7944C8.65219 20.1688 9.58611 18.0232 11.1156 16.339C10.8673 15.7331 10.0491 13.287 11.3471 9.97424C11.3471 9.97424 13.3547 9.32783 17.9233 12.4395C19.8302 11.9065 21.8754 11.6394 23.9072 11.6303C25.9389 11.6394 27.9857 11.9065 29.8963 12.4395C34.4595 9.32783 36.4643 9.97424 36.4643 9.97424C37.7654 13.287 36.9469 15.7331 36.6986 16.339C38.2314 18.0232 39.159 20.1686 39.159 22.7944C39.159 32.0317 33.5664 34.0657 28.2428 34.6612C29.1002 35.4074 29.8643 36.8712 29.8643 39.1149C29.8643 42.3328 29.8365 44.9227 29.8365 45.7149C29.8365 46.3549 30.2668 47.1049 31.4788 46.869C40.9728 43.6852 47.8141 34.6731 47.8141 24.0505C47.8141 10.7676 37.1104 0 23.9072 0Z" fill="#FAFAFA"/>
<path d="M8.95405 34.2604C8.90154 34.3798 8.71441 34.4155 8.54436 34.3338C8.37092 34.2552 8.27341 34.0923 8.32967 33.9722C8.38122 33.8493 8.56836 33.8151 8.74141 33.8976C8.91524 33.9761 9.01425 34.1406 8.95405 34.2604ZM10.1301 35.3159C10.016 35.4225 9.79309 35.3729 9.6418 35.2049C9.48541 35.0371 9.45617 34.8131 9.57185 34.7049C9.68941 34.5987 9.90561 34.6483 10.0624 34.8163C10.2187 34.986 10.2491 35.2087 10.1299 35.3162M10.9369 36.6664C10.7902 36.7691 10.5506 36.6728 10.4027 36.4591C10.2562 36.2453 10.2562 35.9887 10.4059 35.886C10.5544 35.783 10.7902 35.8757 10.9402 36.0879C11.0865 36.3052 11.0865 36.5617 10.9367 36.6667M12.3011 38.2309C12.1701 38.3761 11.891 38.3371 11.6867 38.1388C11.4778 37.9447 11.4195 37.6695 11.5509 37.5243C11.6835 37.3785 11.9642 37.4193 12.1701 37.6164C12.3776 37.8098 12.4408 38.087 12.3011 38.2309ZM14.0644 38.7588C14.0068 38.9472 13.7379 39.0328 13.4672 38.953C13.1968 38.8702 13.0198 38.6497 13.0744 38.4595C13.1306 38.2698 13.4006 38.1807 13.6734 38.2663C13.9434 38.3484 14.1206 38.5673 14.0644 38.7588ZM16.0714 38.9829C16.0781 39.1812 15.8484 39.3457 15.5642 39.3492C15.2782 39.3557 15.047 39.195 15.044 39C15.044 38.7997 15.2685 38.6368 15.5542 38.632C15.8385 38.6262 16.0714 38.7856 16.0714 38.9829ZM18.0427 38.9069C18.0769 39.1004 17.8792 39.299 17.5971 39.3518C17.3196 39.403 17.0627 39.2836 17.0272 39.0917C16.9927 38.8931 17.1941 38.6945 17.471 38.6429C17.7538 38.5937 18.0067 38.7099 18.0427 38.9069Z" fill="#FAFAFA"/>
</g>
</g>
<defs>
<clipPath id="clip0_105_415">
<rect width="48" height="47" fill="white"/>
</clipPath>
</defs>
</svg>
