<svg width="48" height="29" viewBox="0 0 48 29" fill="none" xmlns="http://www.w3.org/2000/svg">
<g clip-path="url(#clip0_105_409)">
<mask id="mask0_105_409" style="mask-type:luminance" maskUnits="userSpaceOnUse" x="0" y="0" width="48" height="29">
<path d="M48 0H0V28.7578H48V0Z" fill="white"/>
</mask>
<g mask="url(#mask0_105_409)">
<path d="M24 0.0383301C17.6001 0.0383301 13.5999 3.22521 12 9.59877C14.4 6.41189 17.1999 5.21684 20.4 6.01361C22.2257 6.46811 23.5307 7.78732 24.9752 9.24736C27.3283 11.6261 30.0516 14.379 36 14.379C42.4 14.379 46.4 11.1921 48 4.81855C45.6 8.00543 42.8 9.20048 39.6 8.40372C37.7744 7.94921 36.4694 6.63 35.025 5.16996C32.6717 2.79125 29.9484 0.0383301 24 0.0383301ZM12 14.379C5.60006 14.379 1.59994 17.5659 0 23.9394C2.4 20.7526 5.19994 19.5575 8.4 20.3543C10.2257 20.8088 11.5307 22.128 12.9752 23.588C15.3283 25.9667 18.0516 28.7196 24 28.7196C30.3999 28.7196 34.4 25.5328 36 19.1592C33.6 22.3461 30.8001 23.5411 27.6 22.7444C25.7743 22.2899 24.4693 20.9707 23.0248 19.5106C20.6717 17.1319 17.9484 14.379 12 14.379Z" fill="url(#paint0_linear_105_409)"/>
</g>
</g>
<defs>
<linearGradient id="paint0_linear_105_409" x1="-341.36" y1="1409.78" x2="-200.387" y2="2998.23" gradientUnits="userSpaceOnUse">
<stop stop-color="#2298BD"/>
<stop offset="1" stop-color="#0ED7B5"/>
</linearGradient>
<clipPath id="clip0_105_409">
<rect width="48" height="29" fill="white"/>
</clipPath>
</defs>
</svg>
