<svg width="48" height="48" viewBox="0 0 48 48" fill="none" xmlns="http://www.w3.org/2000/svg">
<g clip-path="url(#clip0_105_397)">
<mask id="mask0_105_397" style="mask-type:luminance" maskUnits="userSpaceOnUse" x="0" y="0" width="48" height="48">
<path d="M48 0H0V48H48V0Z" fill="white"/>
</mask>
<g mask="url(#mask0_105_397)">
<path d="M47.0947 21.8613L26.1375 0.905203C24.9313 -0.301734 22.9738 -0.301734 21.7661 0.905203L17.4142 5.25708L22.9348 10.7776C24.2177 10.3442 25.6888 10.6349 26.7114 11.6576C27.7389 12.6868 28.0277 14.1705 27.5837 15.4575L32.904 20.7779C34.191 20.3345 35.6765 20.6214 36.7043 21.6511C38.1411 23.0874 38.1411 25.4152 36.7043 26.8524C35.2672 28.2898 32.9395 28.2898 31.5015 26.8524C30.4207 25.7705 30.1538 24.1833 30.7009 22.8519L25.7393 17.8903L25.7387 30.9472C26.0984 31.1251 26.4269 31.36 26.7114 31.6428C28.1483 33.079 28.1483 35.407 26.7114 36.8454C25.2742 38.2819 22.9453 38.2819 21.5102 36.8454C20.0734 35.407 20.0734 33.0793 21.5102 31.643C21.8545 31.2985 22.2637 31.0257 22.7141 30.8403V17.6617C22.263 17.4776 21.8536 17.2046 21.5102 16.859C20.4216 15.7719 20.1598 14.1746 20.7176 12.8379L15.2756 7.39532L0.905625 21.7644C-0.301875 22.9724 -0.301875 24.9301 0.905625 26.1373L21.8633 47.0937C23.0698 48.3008 25.0269 48.3008 26.235 47.0937L47.0947 26.2346C48.3018 25.0271 48.3018 23.0683 47.0947 21.8613Z" fill="#DE4C36"/>
</g>
</g>
<defs>
<clipPath id="clip0_105_397">
<rect width="48" height="48" fill="white"/>
</clipPath>
</defs>
</svg>
