<svg width="48" height="55" viewBox="0 0 48 55" fill="none" xmlns="http://www.w3.org/2000/svg">
<g clip-path="url(#clip0_114_297)">
<path d="M25.2981 0.344871C24.4836 -0.115283 23.5164 -0.115283 22.7019 0.344871L1.27256 12.7705C0.458063 13.2307 0 14.1 0 15.0203V39.9225C0 40.843 0.509063 41.7122 1.27256 42.1724L22.7019 54.5978C23.5164 55.0582 24.4836 55.0582 25.2981 54.5978L46.7274 42.1724C47.5419 41.7122 48 40.843 48 39.9225V15.0203C48 14.1 47.4909 13.2307 46.7274 12.7705L25.2981 0.344871Z" fill="url(#paint0_linear_114_297)"/>
<mask id="mask0_114_297" style="mask-type:luminance" maskUnits="userSpaceOnUse" x="0" y="-1" width="48" height="56">
<path d="M25.2981 0.344871C24.4836 -0.115283 23.5164 -0.115283 22.7019 0.344871L1.27256 12.7705C0.458063 13.2307 0 14.1 0 15.0203V39.9225C0 40.843 0.509063 41.7122 1.27256 42.1724L22.7019 54.5978C23.5164 55.0582 24.4836 55.0582 25.2981 54.5978L46.7274 42.1724C47.5419 41.7122 48 40.843 48 39.9225V15.0203C48 14.1 47.4909 13.2307 46.7274 12.7705L25.2981 0.344871Z" fill="white"/>
</mask>
<g mask="url(#mask0_114_297)">
<path d="M46.7784 12.7705L25.2469 0.345199C25.0433 0.24311 24.7888 0.140832 24.5852 0.0895996L0.458069 41.6101C0.661694 41.8657 0.916319 42.0702 1.17057 42.2237L22.7019 54.6492C23.3128 55.0071 24.0255 55.1094 24.6872 54.9048L47.3381 13.2819C47.1853 13.0773 46.9819 12.924 46.7783 12.7707L46.7784 12.7705Z" fill="url(#paint1_linear_114_297)"/>
</g>
<mask id="mask1_114_297" style="mask-type:luminance" maskUnits="userSpaceOnUse" x="0" y="-1" width="48" height="56">
<path d="M25.2981 0.344871C24.4836 -0.115283 23.5164 -0.115283 22.7019 0.344871L1.27256 12.7705C0.458063 13.2307 0 14.1 0 15.0203V39.9225C0 40.843 0.509063 41.7122 1.27256 42.1724L22.7019 54.5978C23.5164 55.0582 24.4836 55.0582 25.2981 54.5978L46.7274 42.1724C47.5419 41.7122 48 40.843 48 39.9225V15.0203C48 14.1 47.4909 13.2307 46.7274 12.7705L25.2981 0.344871Z" fill="white"/>
</mask>
<g mask="url(#mask1_114_297)">
<path d="M46.8293 42.1726C47.4402 41.8148 47.8982 41.2011 48.1018 40.5364L24.4836 0.0384983C23.8727 -0.0637791 23.211 -0.0127345 22.6512 0.345142L1.2724 12.7198L24.331 54.9564C24.6362 54.9051 24.9927 54.8029 25.2981 54.6494L46.8293 42.1728V42.1726Z" fill="url(#paint2_linear_114_297)"/>
</g>
</g>
<defs>
<linearGradient id="paint0_linear_114_297" x1="32.7302" y1="9.6077" x2="9.08831" y2="46.5863" gradientUnits="userSpaceOnUse">
<stop stop-color="#41873F"/>
<stop offset="0.3288" stop-color="#418B3D"/>
<stop offset="0.6352" stop-color="#419637"/>
<stop offset="0.9319" stop-color="#3FA92D"/>
<stop offset="1" stop-color="#3FAE2A"/>
</linearGradient>
<linearGradient id="paint1_linear_114_297" x1="20.7464" y1="30.3881" x2="79.6938" y2="-1.49261" gradientUnits="userSpaceOnUse">
<stop offset="0.1376" stop-color="#41873F"/>
<stop offset="0.4032" stop-color="#54A044"/>
<stop offset="0.7136" stop-color="#66B848"/>
<stop offset="0.9081" stop-color="#6CC04A"/>
</linearGradient>
<linearGradient id="paint2_linear_114_297" x1="-0.782944" y1="27.4725" x2="48.8038" y2="27.4725" gradientUnits="userSpaceOnUse">
<stop offset="0.09192" stop-color="#6CC04A"/>
<stop offset="0.2864" stop-color="#66B848"/>
<stop offset="0.5968" stop-color="#54A044"/>
<stop offset="0.8624" stop-color="#41873F"/>
</linearGradient>
<clipPath id="clip0_114_297">
<rect width="48" height="55" fill="white"/>
</clipPath>
</defs>
</svg>
