<svg width="48" height="71" viewBox="0 0 48 71" fill="none" xmlns="http://www.w3.org/2000/svg">
<g clip-path="url(#clip0_114_442)">
<mask id="mask0_114_442" style="mask-type:luminance" maskUnits="userSpaceOnUse" x="0" y="0" width="48" height="71">
<path d="M47.4074 0H0V71H47.4074V0Z" fill="white"/>
</mask>
<g mask="url(#mask0_114_442)">
<path d="M11.8518 71.0002C18.394 71.0002 23.7037 65.6988 23.7037 59.1668V47.3335H11.8518C5.30963 47.3335 0 52.6348 0 59.1668C0 65.6988 5.30963 71.0002 11.8518 71.0002Z" fill="#0ACF83"/>
<path d="M0 35.4998C0 28.9678 5.30963 23.6665 11.8518 23.6665H23.7037V47.3332H11.8518C5.30963 47.3332 0 42.0318 0 35.4998Z" fill="#A259FF"/>
<path d="M0 11.8333C0 5.30133 5.30963 0 11.8518 0H23.7037V23.6667H11.8518C5.30963 23.6667 0 18.3653 0 11.8333Z" fill="#F24E1E"/>
<path d="M23.7037 0H35.5556C42.0979 0 47.4075 5.30133 47.4075 11.8333C47.4075 18.3653 42.0979 23.6667 35.5556 23.6667H23.7037V0Z" fill="#FF7262"/>
<path d="M47.4075 35.4998C47.4075 42.0318 42.0979 47.3332 35.5556 47.3332C29.0134 47.3332 23.7037 42.0318 23.7037 35.4998C23.7037 28.9678 29.0134 23.6665 35.5556 23.6665C42.0979 23.6665 47.4075 28.9678 47.4075 35.4998Z" fill="#1ABCFE"/>
</g>
</g>
<defs>
<clipPath id="clip0_114_442">
<rect width="48" height="71" fill="white"/>
</clipPath>
</defs>
</svg>
